<svg xmlns="http://www.w3.org/2000/svg" width="32" height="29" viewBox="0 0 32 29">
  <metadata><?xpacket begin="﻿" id="W5M0MpCehiHzreSzNTczkc9d"?>
<x:xmpmeta xmlns:x="adobe:ns:meta/" x:xmptk="Adobe XMP Core 5.6-c138 79.159824, 2016/09/14-01:09:01        ">
   <rdf:RDF xmlns:rdf="http://www.w3.org/1999/02/22-rdf-syntax-ns#">
      <rdf:Description rdf:about=""/>
   </rdf:RDF>
</x:xmpmeta>
                                                                                                    
                                                                                                    
                                                                                                    
                                                                                                    
                                                                                                    
                                                                                                    
                                                                                                    
                                                                                                    
                                                                                                    
                                                                                                    
                                                                                                    
                                                                                                    
                                                                                                    
                                                                                                    
                                                                                                    
                                                                                                    
                                                                                                    
                                                                                                    
                                                                                                    
                                                                                                    
                           
<?xpacket end="w"?></metadata>
<defs>
    <style>
      .cls-1 {
        fill: #222;
        fill-rule: evenodd;
      }
    </style>
  </defs>
  <path id="Forma_1" data-name="Forma 1" class="cls-1" d="M1550.18,398.364h3.4l4.83,17.455a1.183,1.183,0,0,0,1.14.867h14.86a1.176,1.176,0,0,0,1.08-.709l5.41-12.412a1.186,1.186,0,0,0-1.09-1.655H1563.4a1.182,1.182,0,0,0,0,2.364H1578l-4.38,10.048h-13.18l-4.83-17.456a1.185,1.185,0,0,0-1.15-.866h-4.28A1.182,1.182,0,0,0,1550.18,398.364ZM1558.43,425a2.68,2.68,0,1,0-2.68-2.68A2.681,2.681,0,0,0,1558.43,425Zm16.77,0h0.19A2.779,2.779,0,1,0,1575.2,425Z" transform="translate(-1549 -396)"/>
</svg>
